<svg version="1.1" id="Layer_1" xmlns="http://www.w3.org/2000/svg" xmlns:xlink="http://www.w3.org/1999/xlink" x="0px" y="0px"
	 width="100%" viewBox="0 0 818 537" enable-background="new 0 0 818 537" xml:space="preserve">
<path fill="#FFFFFF" opacity="1.000000" stroke="none" 
	d="
M768.000000,538.000000 
	C512.000061,538.000000 256.500092,538.000000 1.000103,538.000000 
	C1.000069,359.000092 1.000069,180.000153 1.000034,1.000175 
	C273.666534,1.000117 546.333069,1.000117 818.999756,1.000058 
	C818.999817,179.999832 818.999817,358.999664 818.999878,537.999756 
	C802.166687,538.000000 785.333313,538.000000 768.000000,538.000000 
M192.043259,335.405060 
	C195.116608,327.920166 197.202087,319.809326 201.466309,313.078949 
	C210.714935,298.481567 221.350555,284.770813 230.899918,270.353638 
	C238.826141,258.386963 244.313034,245.489700 242.022278,230.503845 
	C239.882843,216.507797 232.954178,205.555298 221.204559,196.485199 
	C219.055496,213.253128 209.936127,225.706146 201.022446,238.422562 
	C191.873169,251.475067 182.660889,264.611328 174.992233,278.545319 
	C161.802643,302.510803 176.473969,331.080505 191.791428,339.126678 
	C191.870514,338.072479 191.942047,337.119080 192.043259,335.405060 
M268.395630,316.777710 
	C276.627258,295.072510 268.550537,275.763763 259.865387,255.048843 
	C255.011307,271.152618 246.047775,283.142822 237.441498,295.427704 
	C229.155746,307.255066 221.258835,319.391510 213.901077,331.812714 
	C211.261261,336.269196 210.692886,341.952698 209.196152,347.018555 
	C228.816971,353.362122 257.622437,343.455536 268.395630,316.777710 
M518.045105,274.502991 
	C510.164734,266.283997 503.124023,265.807526 490.927124,273.006256 
	C490.927124,264.338959 490.927124,255.962372 490.927124,247.472260 
	C488.363464,247.472260 486.318573,247.472260 484.258362,247.472260 
	C484.258362,267.045593 484.258362,286.288483 484.258362,305.675049 
	C486.512207,305.675049 488.457855,305.675049 490.640991,305.675049 
	C490.851837,304.354553 491.039856,303.177032 491.084503,302.897430 
	C495.577271,304.169098 499.718018,306.126587 503.954559,306.362366 
	C510.889984,306.748352 516.682861,303.705597 519.926086,297.263214 
	C523.740967,289.685364 523.387634,282.184021 518.045105,274.502991 
M294.882019,274.491241 
	C300.699158,277.501129 306.464050,280.618347 312.352173,283.482269 
	C316.133667,285.321533 319.606812,287.203613 318.908966,292.238770 
	C318.322510,296.470276 314.076904,300.337494 309.172882,299.800385 
	C304.672272,299.307526 300.338013,297.295837 295.930450,295.953308 
	C295.979095,295.521057 296.027740,295.088806 296.076416,294.656555 
	C294.268188,296.241241 292.459961,297.825928 290.486725,299.555206 
	C297.074493,307.092896 305.147278,308.166351 313.621948,306.453796 
	C321.701385,304.821136 326.579437,298.656677 326.950989,291.065613 
	C327.325623,283.410889 323.876770,278.877167 315.275360,275.849487 
	C312.298706,274.801666 309.220734,274.029846 306.278320,272.899567 
	C302.172424,271.322327 299.458557,268.459137 300.140442,263.787537 
	C300.777161,259.425476 303.830017,256.788177 308.092682,257.020599 
	C312.426056,257.256836 316.697815,258.623657 320.996521,259.495392 
	C320.971497,259.933746 320.946472,260.372101 320.921448,260.810455 
	C322.715546,259.160187 324.509674,257.509918 326.310120,255.853851 
	C321.216858,250.646713 315.609497,248.871155 307.734497,249.714310 
	C294.585480,251.122131 288.597656,262.006775 294.882019,274.491241 
M623.040405,271.500000 
	C623.040405,282.897339 623.040405,294.294647 623.040405,305.577545 
	C625.783569,305.577545 627.713257,305.577545 630.153442,305.577545 
	C630.153442,299.609406 630.153442,293.904816 630.153442,286.892426 
	C634.987122,292.295868 639.285522,296.444061 642.775574,301.187073 
	C646.270081,305.936096 650.506226,306.641174 656.488098,305.350159 
	C650.310181,298.585419 644.469849,292.190277 638.454407,285.603363 
	C643.974365,279.945435 649.145874,274.644653 654.391907,269.267517 
	C649.343506,268.362976 644.961121,268.779633 641.340515,273.391754 
	C638.276245,277.295258 634.399597,280.561066 630.882507,284.109070 
	C630.519775,283.899139 630.157104,283.689209 629.794434,283.479309 
	C629.794434,271.430511 629.794434,259.381714 629.794434,247.404007 
	C627.374023,247.404007 625.443481,247.404007 623.615845,247.404007 
	C623.377380,247.955490 623.141541,248.248138 623.139648,248.542313 
	C623.091553,255.861435 623.068176,263.180725 623.040405,271.500000 
M466.266113,271.111725 
	C465.534698,270.719360 464.820679,270.289459 464.069214,269.940277 
	C454.403931,265.449432 443.484436,269.060547 438.414215,278.413940 
	C433.695099,287.119629 436.767426,298.266876 445.400665,303.763031 
	C453.721558,309.060211 465.788513,306.629456 471.651672,298.474945 
	C477.760010,289.979431 475.860291,279.300232 466.266113,271.111725 
M606.399841,302.962067 
	C613.227173,297.562653 615.798340,290.533600 613.509949,282.189575 
	C611.392822,274.469971 605.898804,269.535645 598.122681,268.278656 
	C590.198853,266.997803 583.364868,269.805542 578.639160,276.655304 
	C573.692688,283.825073 574.453857,293.525452 580.400208,300.129181 
	C586.872742,307.317169 596.344116,308.532501 606.399841,302.962067 
M368.563446,300.031097 
	C375.872955,290.391418 374.591064,278.831268 365.442963,271.890228 
	C356.837738,265.361115 344.595978,267.239807 338.069458,276.091156 
	C332.234711,284.004303 333.513123,294.930267 341.072754,301.758606 
	C348.622253,308.577759 359.771179,308.088440 368.563446,300.031097 
M550.319763,268.031036 
	C548.501465,268.196167 546.642761,268.174744 544.871643,268.557953 
	C536.105469,270.454712 530.126465,277.266815 529.486938,285.926422 
	C528.881958,294.117859 534.087891,302.346558 541.736145,305.287994 
	C550.050110,308.485474 559.279785,305.868439 564.584900,298.809387 
	C573.413940,287.061432 566.578979,271.386627 550.319763,268.031036 
M406.054596,298.038666 
	C399.461823,301.134888 394.165314,300.289124 390.344086,295.529999 
	C386.902985,291.244232 387.066132,283.147339 390.682587,278.733032 
	C394.582153,273.973145 399.715576,273.809143 408.938141,278.285797 
	C410.384827,276.947876 411.905945,275.541077 413.456757,274.106842 
	C404.534637,265.892426 391.752289,266.399872 384.613098,274.833618 
	C377.907501,282.755157 379.297241,296.340271 387.453308,302.597229 
	C395.339691,308.647308 407.799622,307.705811 413.119446,300.363312 
	C410.647064,300.038330 410.769775,294.503510 406.054596,298.038666 
M426.969086,290.495789 
	C426.969086,283.418274 426.969086,276.340729 426.969086,269.319031 
	C424.324402,269.319031 422.273987,269.319031 420.356964,269.319031 
	C420.356964,281.661072 420.356964,293.672729 420.356964,305.578705 
	C422.670227,305.578705 424.597076,305.578705 426.969055,305.578705 
	C426.969055,300.710785 426.969055,296.102173 426.969086,290.495789 
M422.676910,260.993286 
	C425.990204,261.049896 428.427673,259.478058 428.339935,256.190643 
	C428.293884,254.466812 426.513794,251.578384 425.198303,251.385269 
	C423.261200,251.100906 420.196350,252.165375 419.118256,253.708054 
	C417.005005,256.731995 418.765564,259.310059 422.676910,260.993286 
z"/>
<path fill="#FF9A9A" opacity="1.000000" stroke="none" 
	d="
M192.028412,335.785339 
	C191.942047,337.119080 191.870514,338.072479 191.791428,339.126678 
	C176.473969,331.080505 161.802643,302.510803 174.992233,278.545319 
	C182.660889,264.611328 191.873169,251.475067 201.022446,238.422562 
	C209.936127,225.706146 219.055496,213.253128 221.204559,196.485199 
	C232.954178,205.555298 239.882843,216.507797 242.022278,230.503845 
	C244.313034,245.489700 238.826141,258.386963 230.899918,270.353638 
	C221.350555,284.770813 210.714935,298.481567 201.466309,313.078949 
	C197.202087,319.809326 195.116608,327.920166 192.028412,335.785339 
z"/>
<path fill="#FF9A9A" opacity="1.000000" stroke="none" 
	d="
M268.244263,317.134369 
	C257.622437,343.455536 228.816971,353.362122 209.196152,347.018555 
	C210.692886,341.952698 211.261261,336.269196 213.901077,331.812714 
	C221.258835,319.391510 229.155746,307.255066 237.441498,295.427704 
	C246.047775,283.142822 255.011307,271.152618 259.865387,255.048843 
	C268.550537,275.763763 276.627258,295.072510 268.244263,317.134369 
z"/>
<path fill="#49545E" opacity="1.000000" stroke="none" 
	d="
M518.269287,274.787659 
	C523.387634,282.184021 523.740967,289.685364 519.926086,297.263214 
	C516.682861,303.705597 510.889984,306.748352 503.954559,306.362366 
	C499.718018,306.126587 495.577271,304.169098 491.084503,302.897430 
	C491.039856,303.177032 490.851837,304.354553 490.640991,305.675049 
	C488.457855,305.675049 486.512207,305.675049 484.258362,305.675049 
	C484.258362,286.288483 484.258362,267.045593 484.258362,247.472260 
	C486.318573,247.472260 488.363464,247.472260 490.927124,247.472260 
	C490.927124,255.962372 490.927124,264.338959 490.927124,273.006256 
	C503.124023,265.807526 510.164734,266.283997 518.269287,274.787659 
M494.111328,296.338196 
	C495.333710,297.179443 496.464722,298.221832 497.794830,298.825836 
	C502.640350,301.026123 508.368347,300.002930 511.635651,296.509827 
	C515.163879,292.737793 516.036499,285.976074 513.627563,281.074707 
	C511.369049,276.479187 507.221802,274.269379 501.704956,274.721985 
	C491.905914,275.525818 487.877533,286.019836 494.111328,296.338196 
z"/>
<path fill="#4A555F" opacity="1.000000" stroke="none" 
	d="
M294.654053,274.198822 
	C288.597656,262.006775 294.585480,251.122131 307.734497,249.714310 
	C315.609497,248.871155 321.216858,250.646713 326.310120,255.853851 
	C324.509674,257.509918 322.715546,259.160187 320.921448,260.810455 
	C320.946472,260.372101 320.971497,259.933746 320.996521,259.495392 
	C316.697815,258.623657 312.426056,257.256836 308.092682,257.020599 
	C303.830017,256.788177 300.777161,259.425476 300.140442,263.787537 
	C299.458557,268.459137 302.172424,271.322327 306.278320,272.899567 
	C309.220734,274.029846 312.298706,274.801666 315.275360,275.849487 
	C323.876770,278.877167 327.325623,283.410889 326.950989,291.065613 
	C326.579437,298.656677 321.701385,304.821136 313.621948,306.453796 
	C305.147278,308.166351 297.074493,307.092896 290.486725,299.555206 
	C292.459961,297.825928 294.268188,296.241241 296.076416,294.656555 
	C296.027740,295.088806 295.979095,295.521057 295.930450,295.953308 
	C300.338013,297.295837 304.672272,299.307526 309.172882,299.800385 
	C314.076904,300.337494 318.322510,296.470276 318.908966,292.238770 
	C319.606812,287.203613 316.133667,285.321533 312.352173,283.482269 
	C306.464050,280.618347 300.699158,277.501129 294.654053,274.198822 
z"/>
<path fill="#4A555F" opacity="1.000000" stroke="none" 
	d="
M623.040405,271.000000 
	C623.068176,263.180725 623.091553,255.861435 623.139648,248.542313 
	C623.141541,248.248138 623.377380,247.955490 623.615845,247.404007 
	C625.443481,247.404007 627.374023,247.404007 629.794434,247.404007 
	C629.794434,259.381714 629.794434,271.430511 629.794434,283.479309 
	C630.157104,283.689209 630.519775,283.899139 630.882507,284.109070 
	C634.399597,280.561066 638.276245,277.295258 641.340515,273.391754 
	C644.961121,268.779633 649.343506,268.362976 654.391907,269.267517 
	C649.145874,274.644653 643.974365,279.945435 638.454407,285.603363 
	C644.469849,292.190277 650.310181,298.585419 656.488098,305.350159 
	C650.506226,306.641174 646.270081,305.936096 642.775574,301.187073 
	C639.285522,296.444061 634.987122,292.295868 630.153442,286.892426 
	C630.153442,293.904816 630.153442,299.609406 630.153442,305.577545 
	C627.713257,305.577545 625.783569,305.577545 623.040405,305.577545 
	C623.040405,294.294647 623.040405,282.897339 623.040405,271.000000 
z"/>
<path fill="#4B5560" opacity="1.000000" stroke="none" 
	d="
M466.563538,271.328094 
	C475.860291,279.300232 477.760010,289.979431 471.651672,298.474945 
	C465.788513,306.629456 453.721558,309.060211 445.400665,303.763031 
	C436.767426,298.266876 433.695099,287.119629 438.414215,278.413940 
	C443.484436,269.060547 454.403931,265.449432 464.069214,269.940277 
	C464.820679,270.289459 465.534698,270.719360 466.563538,271.328094 
M452.994934,274.904724 
	C446.037994,277.169617 443.114990,281.790344 443.884247,289.306946 
	C444.494781,295.272522 448.691528,299.464264 454.512360,299.922302 
	C461.986969,300.510498 467.462219,295.470978 467.785217,287.705811 
	C468.122040,279.607391 462.732056,274.616272 452.994934,274.904724 
z"/>
<path fill="#4A555F" opacity="1.000000" stroke="none" 
	d="
M606.107422,303.176147 
	C596.344116,308.532501 586.872742,307.317169 580.400208,300.129181 
	C574.453857,293.525452 573.692688,283.825073 578.639160,276.655304 
	C583.364868,269.805542 590.198853,266.997803 598.122681,268.278656 
	C605.898804,269.535645 611.392822,274.469971 613.509949,282.189575 
	C615.798340,290.533600 613.227173,297.562653 606.107422,303.176147 
M606.901123,286.610504 
	C605.388367,277.944183 601.331299,274.233673 593.873047,274.695068 
	C587.696838,275.077148 583.311646,279.650116 582.945068,286.090881 
	C582.507751,293.776398 586.672729,299.257385 593.445190,299.908569 
	C601.115845,300.646118 605.752747,296.351013 606.901123,286.610504 
z"/>
<path fill="#4A555F" opacity="1.000000" stroke="none" 
	d="
M368.327881,300.301880 
	C359.771179,308.088440 348.622253,308.577759 341.072754,301.758606 
	C333.513123,294.930267 332.234711,284.004303 338.069458,276.091156 
	C344.595978,267.239807 356.837738,265.361115 365.442963,271.890228 
	C374.591064,278.831268 375.872955,290.391418 368.327881,300.301880 
M343.028595,293.055359 
	C346.865082,299.434998 352.877472,301.680969 358.993561,299.019226 
	C364.547668,296.601990 367.325714,289.374451 365.202393,282.865845 
	C363.160583,276.607178 357.841034,273.611389 351.083771,274.914642 
	C343.864441,276.307037 340.483978,283.381805 343.028595,293.055359 
z"/>
<path fill="#4A555F" opacity="1.000000" stroke="none" 
	d="
M550.749512,268.048279 
	C566.578979,271.386627 573.413940,287.061432 564.584900,298.809387 
	C559.279785,305.868439 550.050110,308.485474 541.736145,305.287994 
	C534.087891,302.346558 528.881958,294.117859 529.486938,285.926422 
	C530.126465,277.266815 536.105469,270.454712 544.871643,268.557953 
	C546.642761,268.174744 548.501465,268.196167 550.749512,268.048279 
M541.609375,276.846893 
	C540.564209,278.127441 539.323730,279.295441 538.509216,280.708893 
	C535.648865,285.672607 536.687134,293.082947 540.629700,296.876038 
	C544.164856,300.277130 550.695618,301.010345 555.032349,298.493042 
	C559.550049,295.870667 561.925537,289.753906 560.607483,284.137054 
	C558.611206,275.629822 551.312988,272.535461 541.609375,276.846893 
z"/>
<path fill="#4B5660" opacity="1.000000" stroke="none" 
	d="
M406.368896,297.854736 
	C410.769775,294.503510 410.647064,300.038330 413.119446,300.363312 
	C407.799622,307.705811 395.339691,308.647308 387.453308,302.597229 
	C379.297241,296.340271 377.907501,282.755157 384.613098,274.833618 
	C391.752289,266.399872 404.534637,265.892426 413.456757,274.106842 
	C411.905945,275.541077 410.384827,276.947876 408.938141,278.285797 
	C399.715576,273.809143 394.582153,273.973145 390.682587,278.733032 
	C387.066132,283.147339 386.902985,291.244232 390.344086,295.529999 
	C394.165314,300.289124 399.461823,301.134888 406.368896,297.854736 
z"/>
<path fill="#47525D" opacity="1.000000" stroke="none" 
	d="
M426.969055,290.994690 
	C426.969055,296.102173 426.969055,300.710785 426.969055,305.578705 
	C424.597076,305.578705 422.670227,305.578705 420.356964,305.578705 
	C420.356964,293.672729 420.356964,281.661072 420.356964,269.319031 
	C422.273987,269.319031 424.324402,269.319031 426.969086,269.319031 
	C426.969086,276.340729 426.969086,283.418274 426.969055,290.994690 
z"/>
<path fill="#4B5660" opacity="1.000000" stroke="none" 
	d="
M422.306061,260.910034 
	C418.765564,259.310059 417.005005,256.731995 419.118256,253.708054 
	C420.196350,252.165375 423.261200,251.100906 425.198303,251.385269 
	C426.513794,251.578384 428.293884,254.466812 428.339935,256.190643 
	C428.427673,259.478058 425.990204,261.049896 422.306061,260.910034 
z"/>
<path fill="#FBFCFC" opacity="1.000000" stroke="none" 
	d="
M493.876678,296.032104 
	C487.877533,286.019836 491.905914,275.525818 501.704956,274.721985 
	C507.221802,274.269379 511.369049,276.479187 513.627563,281.074707 
	C516.036499,285.976074 515.163879,292.737793 511.635651,296.509827 
	C508.368347,300.002930 502.640350,301.026123 497.794830,298.825836 
	C496.464722,298.221832 495.333710,297.179443 493.876678,296.032104 
z"/>
<path fill="#FBFCFC" opacity="1.000000" stroke="none" 
	d="
M453.415588,274.846924 
	C462.732056,274.616272 468.122040,279.607391 467.785217,287.705811 
	C467.462219,295.470978 461.986969,300.510498 454.512360,299.922302 
	C448.691528,299.464264 444.494781,295.272522 443.884247,289.306946 
	C443.114990,281.790344 446.037994,277.169617 453.415588,274.846924 
z"/>
<path fill="#FBFCFC" opacity="1.000000" stroke="none" 
	d="
M606.913574,287.015961 
	C605.752747,296.351013 601.115845,300.646118 593.445190,299.908569 
	C586.672729,299.257385 582.507751,293.776398 582.945068,286.090881 
	C583.311646,279.650116 587.696838,275.077148 593.873047,274.695068 
	C601.331299,274.233673 605.388367,277.944183 606.913574,287.015961 
z"/>
<path fill="#FBFCFC" opacity="1.000000" stroke="none" 
	d="
M342.904114,292.674622 
	C340.483978,283.381805 343.864441,276.307037 351.083771,274.914642 
	C357.841034,273.611389 363.160583,276.607178 365.202393,282.865845 
	C367.325714,289.374451 364.547668,296.601990 358.993561,299.019226 
	C352.877472,301.680969 346.865082,299.434998 342.904114,292.674622 
z"/>
<path fill="#FBFCFC" opacity="1.000000" stroke="none" 
	d="
M541.915039,276.594116 
	C551.312988,272.535461 558.611206,275.629822 560.607483,284.137054 
	C561.925537,289.753906 559.550049,295.870667 555.032349,298.493042 
	C550.695618,301.010345 544.164856,300.277130 540.629700,296.876038 
	C536.687134,293.082947 535.648865,285.672607 538.509216,280.708893 
	C539.323730,279.295441 540.564209,278.127441 541.915039,276.594116 
z"/>
</svg>